PathFileType	3	(X/Y/Z)	F:\ViconData\AntennenMessung\Messung1\Session1\ID13.trc
DataRate	CameraRate	NumFrames	NumMarkers	Units	OrigDataRate	OrigDataStartFrame	OrigNumFrames
120.0	120.0	4	70	mm	120.0	685	912	
Frame#	Time	Ashort			Along			Atop			A4			Bshort			Blong			Btop			B4			Cshort			Clong			Ctop			C4			Dshort			Dlong			Dtop			D4			Eshort			Elong			Etop			E4			Fshort			Flong			Ftop			F4			Gshort			Glong			Gtop			G4			Hshort			Hlong			Htop			H4			I1			I2			I3			I4			I5			WandAshort			WandAlong			WandAtop			WandA4			WandA15			WandBshort			WandB4			WandB5			WandBtop			WandBlong			WandCshort			WandClong			WandCtop			WandC4			WandC5			Acenter			Aantenna			Bcenter			Bantenna			Ccenter			Cantenna			Dcenter			Dantenna			Ecenter			Eantenna			Fcenter			Fantenna			Gcenter			Gantenna			Hcenter			Hantenna			Icenter			Iantenna			
		X1	Y1	Z1	X2	Y2	Z2	X3	Y3	Z3	X4	Y4	Z4	X5	Y5	Z5	X6	Y6	Z6	X7	Y7	Z7	X8	Y8	Z8	X9	Y9	Z9	X10	Y10	Z10	X11	Y11	Z11	X12	Y12	Z12	X13	Y13	Z13	X14	Y14	Z14	X15	Y15	Z15	X16	Y16	Z16	X17	Y17	Z17	X18	Y18	Z18	X19	Y19	Z19	X20	Y20	Z20	X21	Y21	Z21	X22	Y22	Z22	X23	Y23	Z23	X24	Y24	Z24	X25	Y25	Z25	X26	Y26	Z26	X27	Y27	Z27	X28	Y28	Z28	X29	Y29	Z29	X30	Y30	Z30	X31	Y31	Z31	X32	Y32	Z32	X33	Y33	Z33	X34	Y34	Z34	X35	Y35	Z35	X36	Y36	Z36	X37	Y37	Z37	X38	Y38	Z38	X39	Y39	Z39	X40	Y40	Z40	X41	Y41	Z41	X42	Y42	Z42	X43	Y43	Z43	X44	Y44	Z44	X45	Y45	Z45	X46	Y46	Z46	X47	Y47	Z47	X48	Y48	Z48	X49	Y49	Z49	X50	Y50	Z50	X51	Y51	Z51	X52	Y52	Z52	X53	Y53	Z53	X54	Y54	Z54	X55	Y55	Z55	X56	Y56	Z56	X57	Y57	Z57	X58	Y58	Z58	X59	Y59	Z59	X60	Y60	Z60	X61	Y61	Z61	X62	Y62	Z62	X63	Y63	Z63	X64	Y64	Z64	X65	Y65	Z65	X66	Y66	Z66	X67	Y67	Z67	X68	Y68	Z68	X69	Y69	Z69	X70	Y70	Z70	
685	5.7	-1038.2759	214.60074	-1644.1068	-1109.415	204.03947	-1599.3721	-1063.7538	173.27075	-1625.6688	-1054.1792	262.25574	-1634.8964	-1352.7185	235.30159	1003.7359	-1281.3719	227.36224	1052.1251	-1322.7283	194.14342	1020.7331	-1284.6917	287.78415	1052.8337	813.90955	187.60335	1209.5017	892.5365	178.4503	1179.1187	844.43683	145.55669	1198.1976	861.22675	292.74829	1169.3768	1115.8385	209.95862	-1401.807	1056.3184	194.04794	-1460.1975	1095.1735	162.48584	-1423.8724	1069.7621	238.80518	-1425.8601	-1204.5386	1686.0085	-1563.2627	-1129.1289	1688.3032	-1606.0526	-1173.1705	1724.4802	-1581.9325	-1133.7692	1581.0361	-1603.7416	-1239.5526	1699.0085	1119.4043	-1309.205	1698.521	1071.8057	-1270.4972	1736.3688	1096.9027	-1244.9135	1593.9679	1106.2926	988.82874	1664.2366	1162.2457	957.21045	1700.573	1183.7939	922.63354	1662.1111	1214.9565	939.87921	1659.4395	1159.8647	999.13232	1668.4424	-1579.4026	1058.9366	1670.1406	-1518.7052	1025.0688	1708.0459	-1551.1538	1059.3087	1672.189	-1585.5535	-187.66928	1177.298	-236.58943	-194.14169	1178.9845	-152.51117	-191.48236	1215.0018	-199.66034	-222.39404	1175.6464	-202.08636	-142.50444	1180.4661	-196.03746																																														-1068.7583	210.07533	-1624.9384	-1074.0121	248.71222	-1624.1715	-1321.4097	231.81758	1024.9703	-1320.0542	270.5498	1029.3264	848.12659	183.6201	1196.2795	851.88483	222.3894	1194.3259	1088.7953	202.72954	-1428.3369	1082.7268	241.01962	-1432.5844	-1171.9341	1687.0006	-1581.7634	-1170.6483	1648.0222	-1581.5875	-1270.949	1698.7888	1097.9487	-1271.4176	1659.8068	1099.0338	953.04071	1705.3647	1186.6355	972.81213	1733.4891	1168.2206	1026.5742	1669.2216	-1551.5508	1028.0852	1630.2528	-1551.9491	-190.57452	1178.0549	-198.84929	-189.61678	1139.0762	-197.99362
686	5.7083333	-1038.2783	214.6357	-1644.119	-1109.4178	204.05403	-1599.3427	-1063.5782	173.05771	-1625.8839	-1054.1752	262.24936	-1634.9171	-1352.8116	235.22099	1003.7269	-1281.3679	227.43108	1052.1755	-1322.6882	194.14362	1020.7995	-1284.6444	287.85083	1052.7957	813.8858	187.57912	1209.5112	892.46497	178.38553	1179.1906	844.51123	145.46655	1198.2544	861.2807	292.5871	1168.583	1115.8351	209.94691	-1401.7888	1056.2384	194.05025	-1460.1501	1095.1312	162.46155	-1423.8397	1069.7626	238.77107	-1425.8779	-1204.5586	1686.0212	-1563.2629	-1129.1228	1688.3179	-1606.0636	-1173.1772	1724.4977	-1581.9418	-1134.0522	1581.0555	-1603.844	-1239.531	1698.9998	1119.3975	-1309.2015	1698.5396	1071.8043	-1270.5085	1736.3649	1096.8834	-1245.7247	1592.9795	1110.7212	988.88934	1664.2837	1162.2402	957.26379	1700.4852	1183.7708	922.24023	1662.3529	1214.9828	939.87305	1659.4338	1159.8372	999.11615	1668.4263	-1579.3931	1058.9379	1670.1388	-1518.7086	1025.0515	1708.0553	-1551.1713	1059.3051	1672.187	-1585.5525	-187.67268	1177.3032	-236.6004	-194.13748	1178.9961	-152.50063	-191.48552	1215.0131	-199.67445	-222.38176	1175.6226	-202.08151	-142.50299	1180.4513	-195.99402																																														-1068.5697	210.12999	-1625.0531	-1073.7723	248.7717	-1624.187	-1321.4341	231.79973	1025.005	-1320.1442	270.53757	1029.3313	848.2027	183.5641	1196.2697	851.95898	222.33022	1194.2501	1088.761	202.72523	-1428.3016	1082.7025	241.01738	-1432.5452	-1171.9388	1687.0143	-1581.7705	-1170.6512	1648.0359	-1581.5925	-1270.9692	1698.792	1097.9214	-1271.4474	1659.8098	1098.9982	952.71307	1705.6942	1186.8688	972.5274	1733.8761	1168.5884	1026.5555	1669.2118	-1551.5577	1028.0646	1630.2428	-1551.9456	-190.57376	1178.0627	-198.86058	-189.61195	1139.0841	-198.00204
687	5.7166667	-1038.2701	214.6022	-1644.083	-1109.4224	204.13548	-1599.3229	-1063.6774	173.30792	-1625.6479	-1054.1688	262.24741	-1634.8481	-1352.7623	235.22302	1003.7548	-1281.407	227.46788	1052.1631	-1322.7354	194.14233	1020.7546	-1284.7242	287.77759	1052.7451	813.93738	187.58186	1209.4147	892.63196	178.5836	1179.1154	844.48383	145.53989	1198.2933	861.18286	292.47723	1168.5887	1115.8134	209.97241	-1401.7858	1056.2263	194.02249	-1460.1051	1095.1125	162.47464	-1423.8528	1069.7635	238.85495	-1425.8356	-1204.5483	1686.0078	-1563.254	-1129.1498	1688.2921	-1606.014	-1173.1809	1724.4984	-1581.9398	-1133.7943	1581.0496	-1603.7063	-1239.5553	1699.0256	1119.4087	-1309.2592	1698.621	1071.8453	-1270.4686	1736.3271	1096.8767	-1244.9164	1593.9596	1106.4086	988.83173	1664.2278	1162.2268	957.34454	1700.543	1183.7744	922.24957	1662.2443	1214.8999	939.80713	1659.4507	1159.9055	999.13574	1668.4548	-1579.4155	1058.9219	1670.1328	-1518.707	1025.0601	1708.0591	-1551.1659	1059.306	1672.1815	-1585.5411	-187.68535	1177.2854	-236.58788	-194.21127	1179.1198	-152.41516	-191.50365	1214.9989	-199.66832	-222.41191	1175.6534	-202.07407	-142.49197	1180.4722	-196.01726																																														-1068.6633	210.13123	-1624.9631	-1073.8958	248.77199	-1624.2448	-1321.4966	231.82495	1024.9658	-1320.2234	270.56302	1029.2948	848.06732	183.67929	1196.2738	851.71057	222.45444	1194.2207	1088.7076	202.7169	-1428.3147	1082.614	241.00331	-1432.5597	-1171.9364	1686.9958	-1581.7488	-1170.6429	1648.0178	-1581.5504	-1270.9894	1698.843	1097.959	-1271.5312	1659.863	1099.0846	952.97626	1705.5808	1186.7637	972.91046	1733.6957	1168.5104	1026.5591	1669.2245	-1551.5688	1028.0635	1630.2556	-1551.9734	-190.61539	1178.1089	-198.79556	-189.67686	1139.1312	-197.87343
688	5.725	-1038.2809	214.58873	-1644.0815	-1109.4087	204.02055	-1599.3478	-1063.6423	172.99426	-1625.8695	-1054.1976	262.24979	-1634.8851	-1352.8036	235.22865	1003.7626	-1281.4551	227.37463	1052.2091	-1322.7914	194.1152	1020.7554	-1284.6136	287.80215	1052.8278	813.87482	187.72243	1209.4548	892.55939	178.56503	1179.0055	844.47595	145.57881	1198.2363	861.27551	292.59393	1168.509	1115.8124	209.96742	-1401.8003	1056.2814	194.03224	-1460.1705	1095.1323	162.3999	-1423.8196	1069.7657	238.85452	-1425.8699	-1204.5509	1686.0142	-1563.2563	-1129.1306	1688.3062	-1606.031	-1173.1801	1724.5078	-1581.9429	-1133.7806	1581.0261	-1603.7053	-1239.5575	1699.0334	1119.4109	-1308.3234	1699.5701	1068.5323	-1270.4724	1736.3386	1096.8843	-1244.9894	1593.8484	1106.5121	988.8396	1664.2235	1162.2513	957.45361	1700.4091	1183.7822	922.66577	1662.1123	1214.9548	939.87524	1659.433	1159.8727	999.12317	1668.4415	-1579.4283	1058.9292	1670.1381	-1518.7047	1025.0461	1708.0503	-1551.1578	1059.3125	1672.1324	-1585.442	-187.69247	1177.2905	-236.58339	-194.1449	1178.9847	-152.50415	-191.49911	1215.0087	-199.66756	-222.40993	1175.6469	-202.04198	-142.5049	1180.4337	-195.9548																																														-1068.6104	210.08237	-1625.0067	-1073.7867	248.72684	-1624.1078	-1321.5266	231.78571	1025	-1320.2263	270.51892	1029.3644	848.12842	183.73595	1196.1995	851.83936	222.5038	1194.1299	1088.7578	202.72549	-1428.327	1082.7052	241.0145	-1432.6072	-1171.9337	1687.0052	-1581.755	-1170.6385	1648.0273	-1581.5599	-1270.4934	1699.2748	1096.5219	-1270.5156	1660.2766	1096.1407	953.16058	1705.3584	1186.7271	972.9906	1733.4802	1168.3713	1026.5632	1669.2198	-1551.5671	1028.0858	1630.2517	-1551.978	-190.588	1178.0508	-198.85291	-189.62706	1139.072	-197.99374
